# xmcd
#
# Track frame offsets:
#	150
#	27563
#	41565
#	56153
#	91189
#	116647
#	132848
#	155729
#	172493
#	194659
#	214979
#	235028
#	256590
#
# Disc length: 3741 seconds
#
# Revision: 1
# Processed by: cddbd v1.5.2PL0 Copyright (c) Steve Scherf et al.
# Submitted via: audiograbber 1.83.01
#
DISCID=c00e9b0d
DTITLE=Steve Apirana - This Wretched Man
DYEAR=1900
DGENRE=Christian
TTITLE0=Toss Me on The Water
TTITLE1=Watching Over You
TTITLE2=Virgin Mary
TTITLE3=Born Again
TTITLE4=The Good Remembers
TTITLE5=Amsterdam
TTITLE6=Take A Picture
TTITLE7=This Wretched Man
TTITLE8=Uhia Mai
TTITLE9=Tenei Au He Tangata
TTITLE10=I Can See Your House From Here
TTITLE11=Long Ago
TTITLE12=When I'm With You
EXTD=
EXTT0=
EXTT1=
EXTT2=
EXTT3=
EXTT4=
EXTT5=
EXTT6=
EXTT7=
EXTT8=
EXTT9=
EXTT10=
EXTT11=
EXTT12=
PLAYORDER=
